<svg width="36" height="25" viewBox="0 0 36 25" fill="none" xmlns="http://www.w3.org/2000/svg">
<path d="M22.7645 17.8561H1.58008V1.07223C1.58008 0.771289 1.82399 0.527374 2.12493 0.527374H22.2197C22.5206 0.527374 22.7645 0.771289 22.7645 1.07223V17.8561Z" fill="#00BF91"/>
<path d="M22.7633 1.07216V17.856H21.3711V1.07216C21.3711 0.771221 21.1271 0.527237 20.8262 0.527237H22.2191C22.52 0.527237 22.7633 0.771221 22.7633 1.07216Z" fill="#00A96A"/>
<path d="M22.7637 4.07899H27.1739C27.8124 4.07899 28.3956 4.44117 28.6787 5.01345L31.1594 10.0279C31.2508 10.2128 31.4393 10.3297 31.6454 10.3297H33.2925C33.9153 10.3297 34.4201 10.8345 34.4201 11.4572V17.8872H22.7637V4.07899H22.7637Z" fill="#FFC433"/>
<path d="M31.6459 10.3299H30.2678C30.0611 10.3299 29.8733 10.2131 29.7819 10.0282L27.3006 5.01354C27.0179 4.4412 26.4343 4.07909 25.7959 4.07909H27.1747C27.8132 4.07909 28.3961 4.4412 28.6794 5.01354L31.16 10.0282C31.2514 10.2131 31.4399 10.3299 31.6459 10.3299Z" fill="#FFB322"/>
<path d="M34.421 11.4577V17.8871H33.0429V11.4577C33.0429 10.8347 32.538 10.3299 31.915 10.3299H33.2939C33.9161 10.3299 34.421 10.8347 34.421 11.4577Z" fill="#FFB322"/>
<path d="M35.1728 20.7675H0.827157C0.661571 20.7675 0.527344 20.6332 0.527344 20.4676V18.1871C0.527344 18.0215 0.661571 17.8873 0.827157 17.8873H35.1729C35.3385 17.8873 35.4727 18.0215 35.4727 18.1871V20.4676C35.4727 20.6332 35.3384 20.7675 35.1728 20.7675Z" fill="#9D9D9D"/>
<path d="M35.4734 18.1873V20.4676C35.4734 20.6335 35.3391 20.7671 35.1738 20.7671H33.7676C33.9328 20.7671 34.0671 20.6335 34.0671 20.4676V18.1873C34.0671 18.0214 33.9328 17.8871 33.7676 17.8871H35.1738C35.3391 17.8871 35.4734 18.0214 35.4734 18.1873Z" fill="#848484"/>
<path d="M31.6273 10.3292H25.2282C25.0099 10.3292 24.833 10.1523 24.833 9.93402V6.38246C24.833 6.16421 25.0099 5.9873 25.2282 5.9873H29.1614L31.1604 10.0282C31.249 10.2075 31.429 10.3228 31.6273 10.3292Z" fill="#F9F6F6"/>
<path d="M31.6459 10.3299H30.2678C30.2614 10.3299 30.2551 10.3299 30.2488 10.3292C30.0498 10.3228 29.8705 10.2075 29.7819 10.0282L27.7822 5.98738H29.1611L31.16 10.0282C31.2486 10.2075 31.4286 10.3228 31.6269 10.3292C31.6332 10.3299 31.6396 10.3299 31.6459 10.3299Z" fill="#E3E3E3"/>
<path d="M32.8598 12.3562H34.4209V14.611H32.8598C32.2372 14.611 31.7324 14.1062 31.7324 13.4836C31.7324 12.8609 32.2372 12.3562 32.8598 12.3562Z" fill="#F9F6F6"/>
<path d="M33.0137 12.3562H34.4199V14.611H33.0137V12.3562Z" fill="#E3E3E3"/>
<path d="M6.94291 24.0523C9.06173 24.0523 10.7794 22.3347 10.7794 20.2158C10.7794 18.097 9.06173 16.3794 6.94291 16.3794C4.82409 16.3794 3.10645 18.097 3.10645 20.2158C3.10645 22.3347 4.82409 24.0523 6.94291 24.0523Z" fill="#9D9D9D"/>
<path d="M10.7782 20.2159C10.7782 22.3344 9.06047 24.0521 6.94195 24.0521C6.27328 24.0521 5.64469 23.8812 5.09766 23.5803C5.22773 23.593 5.35922 23.6 5.49211 23.6C7.61133 23.6 9.32906 21.883 9.32906 19.7637C9.32906 18.3139 8.52398 17.0511 7.33641 16.3993C9.2693 16.5969 10.7782 18.2302 10.7782 20.2159Z" fill="#848484"/>
<path d="M6.94255 21.6867C7.75488 21.6867 8.41341 21.0282 8.41341 20.2158C8.41341 19.4035 7.75488 18.745 6.94255 18.745C6.13021 18.745 5.47168 19.4035 5.47168 20.2158C5.47168 21.0282 6.13021 21.6867 6.94255 21.6867Z" fill="#F9F6F6"/>
<path d="M29.0572 24.0523C31.176 24.0523 32.8936 22.3347 32.8936 20.2158C32.8936 18.097 31.176 16.3794 29.0572 16.3794C26.9383 16.3794 25.2207 18.097 25.2207 20.2158C25.2207 22.3347 26.9383 24.0523 29.0572 24.0523Z" fill="#9D9D9D"/>
<path d="M32.8947 20.2158C32.8947 22.3344 31.1777 24.0521 29.0584 24.0521C28.3905 24.0521 27.7619 23.8812 27.2148 23.5803C27.3442 23.5929 27.4764 23.6 27.6093 23.6C29.7278 23.6 31.4455 21.8829 31.4455 19.7637C31.4455 18.3139 30.6412 17.0518 29.4543 16.4C31.3872 16.5976 32.8947 18.2309 32.8947 20.2158Z" fill="#848484"/>
<path d="M29.0578 21.6867C29.8701 21.6867 30.5286 21.0282 30.5286 20.2158C30.5286 19.4035 29.8701 18.745 29.0578 18.745C28.2454 18.745 27.5869 19.4035 27.5869 20.2158C27.5869 21.0282 28.2454 21.6867 29.0578 21.6867Z" fill="#F9F6F6"/>
<path d="M35.1728 17.3599H34.9478V11.4573C34.9478 10.5448 34.2054 9.80244 33.2929 9.80244C33.2929 9.80244 31.646 9.80216 31.6447 9.80216C31.6395 9.80174 31.6347 9.79886 31.6324 9.79415L29.1517 4.77965C28.7769 4.02224 28.0192 3.55171 27.1741 3.55171H23.2913V1.0722C23.2913 0.48101 22.8103 0 22.2191 0H2.12443C1.53317 0 1.05216 0.48101 1.05216 1.0722V4.59403C1.05216 4.88526 1.28827 5.12137 1.57951 5.12137C1.87074 5.12137 2.10685 4.88526 2.10685 4.59403V1.0722C2.10685 1.06257 2.11473 1.05469 2.12443 1.05469H22.2192C22.2288 1.05469 22.2367 1.06257 22.2367 1.0722V17.3599H10.2379C9.43717 16.4372 8.25725 15.8519 6.94254 15.8519C5.62783 15.8519 4.44792 16.4372 3.64719 17.3599H2.10685V7.04091C2.10685 6.74968 1.87074 6.51357 1.57951 6.51357C1.28827 6.51357 1.05216 6.74968 1.05216 7.04091V17.3599H0.827089C0.37104 17.3599 0 17.7311 0 18.1871V20.4676C0 20.9237 0.371041 21.2948 0.827159 21.2948H2.71386C3.19536 23.1809 4.90853 24.5797 6.94247 24.5797C8.97641 24.5797 10.6897 23.1809 11.1711 21.2948H19.5962C19.8875 21.2948 20.1236 21.0587 20.1236 20.7674C20.1236 20.4762 19.8875 20.2401 19.5962 20.2401H11.3057C11.3057 20.232 11.3063 20.224 11.3063 20.2158C11.3063 19.5737 11.1657 18.9642 10.9156 18.4146H25.0842C24.8341 18.9642 24.6936 19.5737 24.6936 20.2158C24.6936 20.224 24.6941 20.2319 24.6942 20.2401H21.994C21.7027 20.2401 21.4666 20.4762 21.4666 20.7674C21.4666 21.0587 21.7027 21.2948 21.994 21.2948H24.8288C25.3103 23.1809 27.0234 24.5797 29.0574 24.5797C31.0913 24.5797 32.8046 23.1809 33.286 21.2948H35.1727C35.6287 21.2948 35.9999 20.9237 35.9999 20.4676V18.1871C36 17.7311 35.629 17.3599 35.1728 17.3599ZM1.05469 20.2401V18.4147H2.96931C2.71921 18.9643 2.57865 19.5738 2.57865 20.2159C2.57865 20.2241 2.57921 20.232 2.57928 20.2402H1.05469V20.2401ZM6.94247 23.525C5.11779 23.525 3.63334 22.0405 3.63334 20.2158C3.63334 18.3912 5.11786 16.9067 6.94247 16.9067C8.76709 16.9067 10.2516 18.3912 10.2516 20.2158C10.2516 22.0405 8.76716 23.525 6.94247 23.525ZM33.8931 14.0836H32.8594C32.5285 14.0836 32.2593 13.8144 32.2593 13.4836C32.2593 13.1528 32.5285 12.8836 32.8594 12.8836H33.8931V14.0836ZM30.4594 9.80181H25.3596V6.51469H28.8333L30.4594 9.80181ZM23.2914 17.3599V4.60633H27.1742C27.6153 4.60633 28.0108 4.85193 28.2064 5.2473L28.3116 5.45993H25.2275C24.7188 5.45993 24.3049 5.87372 24.3049 6.38243V9.934C24.3049 10.4426 24.7187 10.8565 25.2275 10.8565L33.293 10.8572C33.6239 10.8572 33.8931 11.1264 33.8931 11.4574V11.8289H32.8594C31.947 11.8289 31.2046 12.5712 31.2046 13.4836C31.2046 14.396 31.947 15.1383 32.8594 15.1383H33.8931V17.3599H32.3529C31.5522 16.4372 30.3722 15.8519 29.0575 15.8519C27.7428 15.8519 26.5629 16.4372 25.7622 17.3599H23.2914ZM29.0575 23.525C27.2328 23.525 25.7484 22.0405 25.7484 20.2158C25.7484 18.3912 27.2329 16.9067 29.0575 16.9067C30.8821 16.9067 32.3667 18.3912 32.3667 20.2158C32.3667 22.0405 30.8821 23.525 29.0575 23.525ZM34.9453 20.2401H33.4207C33.4208 20.232 33.4214 20.224 33.4214 20.2158C33.4214 19.5737 33.2808 18.9642 33.0307 18.4146H34.9453V20.2401Z" fill="black"/>
<path d="M26.9005 12.9319C26.9005 12.6406 26.6644 12.4045 26.3731 12.4045H24.833C24.5418 12.4045 24.3057 12.6406 24.3057 12.9319C24.3057 13.2231 24.5418 13.4592 24.833 13.4592H26.3731C26.6644 13.4592 26.9005 13.2231 26.9005 12.9319Z" fill="black"/>
<path d="M6.94255 18.2176C5.84075 18.2176 4.94434 19.1141 4.94434 20.2158C4.94434 21.3176 5.84075 22.2141 6.94255 22.2141C8.04434 22.2141 8.94076 21.3176 8.94076 20.2158C8.94076 19.1141 8.04441 18.2176 6.94255 18.2176ZM6.94255 21.1594C6.4223 21.1594 5.99902 20.7361 5.99902 20.2158C5.99902 19.6956 6.4223 19.2723 6.94255 19.2723C7.46279 19.2723 7.88607 19.6956 7.88607 20.2158C7.88607 20.7361 7.46286 21.1594 6.94255 21.1594Z" fill="black"/>
<path d="M29.0578 18.2176C27.956 18.2176 27.0596 19.1141 27.0596 20.2158C27.0596 21.3176 27.956 22.2141 29.0578 22.2141C30.1596 22.2141 31.056 21.3176 31.056 20.2158C31.056 19.1141 30.1596 18.2176 29.0578 18.2176ZM29.0578 21.1594C28.5375 21.1594 28.1143 20.7361 28.1143 20.2158C28.1143 19.6956 28.5375 19.2723 29.0578 19.2723C29.578 19.2723 30.0013 19.6956 30.0013 20.2158C30.0013 20.7361 29.578 21.1594 29.0578 21.1594Z" fill="black"/>
</svg>
