<svg xmlns="http://www.w3.org/2000/svg" width="640" height="480" viewBox="0 0 640 480" fill="none">
<path d="M64 64C64 28.7 92.7 0 128 0H416C451.3 0 480 28.7 480 64V96H530.7C547.7 96 564 102.7 576 114.7L621.3 160C633.3 172 640 188.3 640 205.3V352C640 387.3 611.3 416 576 416H572.7C562.3 452.9 528.3 480 488 480C447.7 480 413.8 452.9 403.3 416H300.7C290.3 452.9 256.3 480 216 480C175.7 480 141.8 452.9 131.3 416H128C92.7 416 64 387.3 64 352V304H24C10.7 304 0 293.3 0 280C0 266.7 10.7 256 24 256H136C149.3 256 160 245.3 160 232C160 218.7 149.3 208 136 208H24C10.7 208 0 197.3 0 184C0 170.7 10.7 160 24 160H200C213.3 160 224 149.3 224 136C224 122.7 213.3 112 200 112H24C10.7 112 0 101.3 0 88C0 74.7 10.7 64 24 64H64ZM576 256V205.3L530.7 160H480V256H576ZM256 392C256 369.9 238.1 352 216 352C193.9 352 176 369.9 176 392C176 414.1 193.9 432 216 432C238.1 432 256 414.1 256 392ZM488 432C510.1 432 528 414.1 528 392C528 369.9 510.1 352 488 352C465.9 352 448 369.9 448 392C448 414.1 465.9 432 488 432Z" fill="black"/>
<rect x="176" y="352" width="81" height="80" rx="40" fill="white"/>
<rect x="447" y="352" width="81" height="80" rx="40" fill="white"/>
</svg>